<svg width="197" height="60" xmlns="http://www.w3.org/2000/svg" version="1.0"><g><g stroke="null" id="layer1"><g stroke="null" transform="matrix(0.298034 0 0 0.299098 -0.891762 4.14169)" id="g2424"><g stroke="null" transform="matrix(0.637859 0 0 0.637859 36.4865 2.17139)" id="g2809" fill="#4d4d4d"><path stroke="null" d="m277.63195,76.42868c-14.47141,-0.0239 -26.4812,2.94367 -31.125,4.5625l-4.78125,25.8125c-0.0116,0.0951 23.79543,-6.34855 34.28125,-5.96875c17.36158,0.62381 18.95948,6.63541 18.65625,14.75c0.29595,0.47462 -4.47933,-7.33192 -19.5,-7.59375c-18.94961,-0.32687 -45.69284,6.70947 -45.65625,35.3125c-0.51086,32.17412 24.03361,41.63882 40.75,41.8125c15.02821,-0.27364 22.0777,-5.69136 25.9375,-8.59375c5.07124,-5.30236 10.87308,-10.63447 16.40625,-17.03125c-5.23567,9.51278 -9.77472,16.0898 -14.5,21.125l0,4.25l22.84375,-3.84375l0.15625,-62.09375c-0.23141,-8.78839 5.04123,-42.41827 -43.46875,-42.5zm-3.28125,54.0625c9.46889,0.12995 20.32788,4.79708 20.34375,16.03125c0.049,10.21821 -12.80005,15.71183 -21.15625,15.625c-8.35976,-0.0868 -19.45093,-6.56982 -19.5,-16.53125c0.16016,-8.90444 10.45953,-15.35418 20.3125,-15.125z" id="path2284" fill="#4d4d4d" fill-rule="evenodd"/><path stroke="null" d="m336.16426,82.16638l-0.15505,102.82693l26.61213,-5.12724l0.0449,-58.30157c0.006,-8.68089 12.40554,-18.82451 27.9627,-18.66287c3.30202,-5.97408 9.5087,-21.24219 11.02088,-24.71514c-34.75649,-0.0833 -35.19897,9.98993 -41.24398,14.94517c-0.0631,-9.45285 -0.0213,-15.12741 -0.0213,-15.12741l-24.2202,4.16213l-0.00008,0z" id="path2286" fill="#4d4d4d" fill-rule="evenodd"/><path stroke="null" d="m485.932,95.66551c-0.25696,-0.12068 -13.87938,-15.93419 -41.26638,-16.0589c-25.65249,-0.42638 -54.42578,9.51895 -54.88631,52.5328c0.22457,37.81852 27.6402,52.59809 55.0314,52.88627c29.31292,0.30451 40.97654,-18.32947 41.67615,-18.79124c-3.49762,-3.0321 -16.59792,-16.0131 -16.59792,-16.0131c0,0 -8.18236,11.65102 -24.05802,11.79913c-15.87942,0.1512 -29.68245,-12.27325 -29.87805,-29.60905c-0.20349,-17.33595 12.68881,-26.72821 29.99725,-27.48687c14.98466,-0.003 23.6297,9.67334 23.6297,9.67334l16.35218,-18.93238z" id="path2288" fill="#4d4d4d" fill-rule="evenodd"/><path stroke="null" d="m519.4757,46.17868l-25.125,5.90625l0.1875,133.9375l24.75,-4.46875l0.28125,-63.03125c0.0529,-6.60927 9.56127,-16.75916 25.4375,-16.4375c15.17973,0.15775 18.57236,10.11767 18.53125,11.375l0.4375,72.96875l24.40625,-4.3125l0.0937,-77.375c0.1607,-7.44539 -16.30833,-23.16954 -42.78125,-23.28125c-12.58087,0.0202 -19.54815,2.86825 -23.09375,4.96875c-6.06656,4.68565 -12.9998,9.17543 -19.8125,14.90625c6.29809,-8.09099 11.58551,-13.68516 16.75,-17.84375l-0.0625,-37.3125l0.00005,0z" id="path2290" fill="#4d4d4d" fill-rule="evenodd"/></g><g stroke="null" transform="matrix(0.944337 0 0.0133635 0.944337 78.3457 -412.489)" id="g5326" fill="#1793d1"><path stroke="null" d="m360.79395,472.64098l7.68167,-1.91575l-0.92851,91.20792l-7.79574,1.32426l1.04258,-90.61643z" id="path2292" fill="#1793d1" fill-rule="evenodd"/><path stroke="null" d="m381.2208,499.86246l6.75064,-2.9867l-0.86808,65.39931l-6.49779,1.33915l0.61523,-63.75176zm-1.26059,-23.58316l5.47167,-4.41533l4.42261,4.99952l-5.47558,4.53221l-4.4187,-5.1164z" id="path2294" fill="#1793d1" fill-rule="evenodd"/><path stroke="null" d="m400.56087,498.67103l7.67755,-1.56201l-0.1573,13.6722c-0.007,0.58717 4.4194,-15.27364 24.68502,-14.92094c19.67986,0.10952 22.68401,15.34634 22.5291,18.76237l-0.43759,48.0783l-6.73044,1.45631l0.63316,-47.489c0.0974,-1.38684 -2.88144,-13.11441 -16.78906,-13.15754c-13.90509,-0.0404 -23.68364,10.10048 -23.75821,16.57937l-0.48127,41.83477l-7.80388,2.0313l0.63292,-65.28513z" id="path2296" fill="#1793d1" fill-rule="evenodd"/><path stroke="null" d="m521.65115,563.04692l-7.6776,1.56186l0.15737,-13.67198c0.007,-0.58742 -4.42201,15.27361 -24.68504,14.92086c-19.67983,-0.10944 -22.68399,-15.34626 -22.52908,-18.76229l0.43757,-48.07861l8.15674,-1.64226l-0.54644,47.48988c-0.0149,1.29682 1.36845,13.29979 15.27604,13.3426c13.90511,0.0405 23.76622,-8.37359 24.01453,-21.04416l0.43105,-37.46902l7.5978,-1.93195l-0.63294,65.28507z" id="path2298" fill="#1793d1" fill-rule="evenodd"/><path stroke="null" d="m537.57275,498.13167l-5.42715,4.20017l20.19894,26.93328l-22.39092,31.11622l5.63499,4.226l21.04365,-28.8967l20.8779,29.58159l5.32727,-4.20103l-22.37578,-31.62866l18.56963,-25.5775l-5.53193,-4.73429l-16.92109,23.66778l-19.00551,-24.68686z" id="path2300" fill="#1793d1" fill-rule="evenodd"/></g><path stroke="null" d="m104.13706,-7.75633c-8.45709,20.73453 -13.55799,34.29735 -22.97385,54.41552c5.7731,6.11949 12.85931,13.24593 24.36729,21.29458c-12.3722,-5.09109 -20.81157,-10.20242 -27.11844,-15.50646c-12.0505,25.14523 -30.93018,60.96349 -69.24312,129.80406c30.11269,-17.38458 53.45551,-28.10236 75.20989,-32.19198c-0.93414,-4.01773 -1.46524,-8.36369 -1.42917,-12.89823l0.03573,-0.96469c0.47782,-19.2924 10.51372,-34.12826 22.40219,-33.12094c11.88848,1.00732 21.12927,17.4729 20.65146,36.76531c-0.08987,3.63022 -0.49934,7.12245 -1.21479,10.36146c21.5182,4.20934 44.61141,14.89968 74.31667,32.04906c-5.8573,-10.78369 -11.08544,-20.5044 -16.07812,-29.7624c-7.86429,-6.09535 -16.06714,-14.02847 -32.79937,-22.61656c11.50078,2.98839 19.73519,6.43619 26.15375,10.29c-50.76203,-94.51004 -54.87267,-107.06847 -72.2801,-147.91875l-0.00002,0.00002z" id="path2518" fill="#1793d1" fill-rule="evenodd"/><g stroke="null" id="text2634" font-size="8.44138px" font-style="normal" font-weight="normal" fill="#1793d1" font-family="DejaVu Sans Mono"><path stroke="null" d="m645.70486,115.42882l0,-5.32944l-1.99082,0l0,-0.71307l4.7895,0l0,0.71307l-1.99906,0l0,5.32944l-0.79962,0" id="path3945" fill="#1793d1"/><path stroke="null" d="m649.33614,115.42882l0,-6.04251l1.20355,0l1.43026,4.2784c0.13189,0.39843 0.22806,0.69658 0.28852,0.89442c0.0687,-0.21983 0.17586,-0.5427 0.3215,-0.96862l1.44674,-4.2042l1.07578,0l0,6.04251l-0.77077,0l0,-5.05741l-1.75587,5.05741l-0.72131,0l-1.74763,-5.14396l0,5.14396l-0.77077,0" id="path3947" fill="#1793d1"/></g><g stroke="null" id="text2638" font-size="8.2513px" font-style="normal" font-weight="normal" fill="#1793d1" font-family="DejaVu Sans Mono"><path stroke="null" d="m200.07847,165.29223l0,-5.20945l-1.94598,0l0,-0.697l4.68164,0l0,0.697l-1.95404,0l0,5.20945l-0.78162,0" id="path3940" fill="#1793d1"/><path stroke="null" d="m203.62798,165.29223l0,-5.90645l1.17646,0l1.39805,4.18205c0.12892,0.38947 0.22293,0.6809 0.28202,0.87429c0.0671,-0.21488 0.1719,-0.53048 0.31426,-0.94681l1.41417,-4.10953l1.05155,0l0,5.90645l-0.75341,0l0,-4.94353l-1.71634,4.94353l-0.70506,0l-1.70828,-5.02814l0,5.02814l-0.75342,0" id="path3942" fill="#1793d1"/></g></g></g></g></svg>