<svg xmlns="http://www.w3.org/2000/svg" width="205" height="59.99999999999999" data-name="Layer 1">

    <g>
        <title>Layer 1</title>
        <g stroke="null" id="svg_10">
            <path stroke="null" id="svg_1" stroke-width="0px" fill="#1d63ed" d="m59.77746,26.1312c-1.37098,-0.92286 -4.97261,-1.31694 -7.59069,-0.61108c-0.14051,-2.60811 -1.48655,-4.80633 -3.94666,-6.72437l-0.91038,-0.61108l-0.60692,0.91704c-1.19306,1.81079 -1.69606,4.22435 -1.51814,6.41842c0.14051,1.35186 0.61025,2.87083 1.51814,3.97327c-3.40791,1.97707 -6.54978,1.52812 -20.46245,1.52812l-21.48008,0c-0.06236,3.14186 0.44231,9.18449 4.28504,14.10389c0.42485,0.54374 0.8896,1.06918 1.39509,1.57551c3.12441,3.12856 7.8451,5.42323 14.9037,5.42905c10.76914,0.00998 19.9952,-5.81149 25.60799,-19.88545c1.84654,0.02993 6.72188,0.3309 9.108,-4.27922c0.0582,-0.07732 0.60692,-1.22216 0.60692,-1.22216l-0.90955,-0.61108l0,-0.00083zm-40.97893,-2.87249l-6.04013,0l0,6.04013l6.04013,0l0,-6.04013zm7.8027,0l-6.04013,0l0,6.04013l6.04013,0l0,-6.04013zm7.80353,0l-6.04013,0l0,6.04013l6.04013,0l0,-6.04013zm7.80353,0l-6.04013,0l0,6.04013l6.04013,0l0,-6.04013zm-31.21329,0l-6.04013,0l0,6.04013l6.04013,0l0,-6.04013zm7.80353,-7.62894l-6.04013,0l0,6.04013l6.04013,0l0,-6.04013zm7.8027,0l-6.04013,0l0,6.04013l6.04013,0l0,-6.04013zm7.80353,0l-6.04013,0l0,6.04013l6.04013,0l0,-6.04013zm0,-7.62977l-6.04013,0l0,6.04013l6.04013,0l0,-6.04013z" class="cls-1"/>
            <g stroke="null" id="svg_2">
                <path stroke="null" id="svg_3" stroke-width="0px" fill="#1d63ed" d="m198.4452,42.86065c0,1.57467 -1.23629,2.81097 -2.84422,2.81097s-2.86168,-1.23629 -2.86168,-2.81097s1.26955,-2.77688 2.86168,-2.77688s2.84422,1.23629 2.84422,2.77688zm-4.99423,0c0,1.23629 0.91454,2.21818 2.16746,2.21818s2.11675,-0.98188 2.11675,-2.20072s-0.89791,-2.23564 -2.13254,-2.23564s-2.15083,0.99934 -2.15083,2.21818l-0.00083,0zm1.71102,1.45661l-0.6435,0l0,-2.77688c0.25275,-0.05072 0.60942,-0.0848 1.06586,-0.0848c0.52545,0 0.76156,0.0848 0.96526,0.20369c0.15298,0.11806 0.27104,0.33838 0.27104,0.60942c0,0.30512 -0.23695,0.54207 -0.5745,0.6435l0,0.03409c0.26937,0.1006 0.42235,0.30429 0.50715,0.67676c0.08397,0.42318 0.13469,0.59279 0.20369,0.69422l-0.69422,0c-0.0848,-0.10143 -0.13635,-0.35501 -0.22032,-0.67759c-0.05072,-0.30429 -0.22032,-0.43981 -0.57616,-0.43981l-0.30429,0l0,1.11823l0,-0.00083zm0.0158,-1.57467l0.30429,0c0.35584,0 0.6435,-0.11806 0.6435,-0.40572c0,-0.25441 -0.1854,-0.42485 -0.59279,-0.42485c-0.16877,0 -0.28766,0.01746 -0.35501,0.03575l0,0.79482z" class="cls-1"/>
                <path stroke="null" id="svg_4" stroke-width="0px" fill="#1d63ed" d="m89.34209,14.75763c-0.39824,-0.3891 -0.8763,-0.58697 -1.44913,-0.58697s-1.06502,0.19787 -1.4483,0.58697c-0.38411,0.3891 -0.572,0.88794 -0.572,1.48239l0,9.92693c-1.97042,-1.62871 -4.2443,-2.45014 -6.83079,-2.45014c-3.00635,0 -5.57704,1.08581 -7.70709,3.26491c-2.13005,2.17162 -3.18759,4.79885 -3.18759,7.88002s1.06502,5.70092 3.18759,7.88002c2.13005,2.17162 4.69409,3.26491 7.70709,3.26491s5.54877,-1.08581 7.70709,-3.26491c2.13005,-2.15 3.18759,-4.7764 3.18759,-7.88002l0,-18.62172c0,-0.59445 -0.19538,-1.09329 -0.59445,-1.48239zm-4.00569,22.78954l0,0.01497c-0.35501,0.84387 -0.84055,1.58465 -1.45578,2.21568c-0.61524,0.63852 -1.34022,1.13736 -2.1658,1.51149c-0.83306,0.37413 -1.71684,0.55787 -2.66547,0.55787s-1.85402,-0.18374 -2.68709,-0.55787c-0.83306,-0.37413 -1.55056,-0.87297 -2.15832,-1.504c-0.60859,-0.63103 -1.09329,-1.37181 -1.4483,-2.21568c-0.35501,-0.85135 -0.53625,-1.75343 -0.53625,-2.70787s0.18125,-1.85652 0.53625,-2.70787c0.35501,-0.85135 0.84055,-1.58465 1.4483,-2.21568c0.60859,-0.63103 1.33274,-1.12987 2.15832,-1.504c0.83306,-0.37413 1.72433,-0.55787 2.68709,-0.55787s1.83241,0.18374 2.66547,0.55787c0.83306,0.37413 1.55056,0.87297 2.1658,1.51149c0.61524,0.63852 1.10078,1.37929 1.45578,2.21568c0.35501,0.84387 0.53625,1.73929 0.53625,2.69291s-0.18125,1.85652 -0.53625,2.69291z" class="cls-1"/>
                <path stroke="null" id="svg_5" stroke-width="0px" fill="#1d63ed" d="m179.35041,30.58418c-0.52877,-1.3211 -1.3344,-2.51665 -2.39111,-3.58833l-0.01413,-0.00748c-2.15167,-2.17162 -4.72402,-3.26491 -7.70709,-3.26491s-5.57787,1.08581 -7.70792,3.26491c-2.13005,2.17162 -3.18676,4.79885 -3.18676,7.88002s1.06502,5.70092 3.18676,7.88002c2.13005,2.17162 4.69492,3.26491 7.70792,3.26491c2.73697,0 5.10563,-0.90207 7.12012,-2.70704c0.38993,-0.41071 0.58697,-0.90955 0.58697,-1.48987s-0.1879,-1.09329 -0.57284,-1.48239c-0.38328,-0.3891 -0.86881,-0.58697 -1.4483,-0.58697c-0.50632,0.01497 -0.95611,0.18374 -1.33939,0.52129c-0.60859,0.52794 -1.26789,0.932 -1.98455,1.19639c-0.7175,0.26439 -1.49985,0.39658 -2.3537,0.39658c-0.75408,0 -1.47823,-0.11723 -2.1658,-0.35917c-0.68923,-0.24194 -1.33274,-0.57284 -1.90557,-1.00516c-0.58032,-0.43316 -1.07916,-0.94613 -1.5065,-1.55555c-0.42734,-0.60193 -0.75325,-1.26955 -0.97025,-2.00285l15.40753,0c0.57117,0 1.04923,-0.19787 1.4483,-0.58697c0.39907,-0.3891 0.59445,-0.88794 0.59445,-1.48239c0,-1.54059 -0.26937,-2.97143 -0.79648,-4.28504l-0.00166,0zm-16.66793,2.21568c0.21034,-0.72664 0.52877,-1.39426 0.95611,-2.00285c0.42817,-0.60193 0.93449,-1.12239 1.51398,-1.55555c0.58697,-0.43316 1.22382,-0.76323 1.92636,-1.00516c0.7017,-0.24194 1.41837,-0.35917 2.15915,-0.35917s1.45578,0.11723 2.15,0.35917c0.69588,0.24194 1.3344,0.572 1.90557,1.00516c0.58032,0.43316 1.08664,0.94613 1.51398,1.55555c0.43399,0.60193 0.76156,1.26955 0.98604,2.00285l-13.11203,0l0.00083,0z" class="cls-1"/>
                <path stroke="null" id="svg_6" stroke-width="0px" fill="#1d63ed" d="m198.28474,25.11772c-0.36249,-0.35917 -0.81893,-0.63852 -1.36932,-0.84387c-0.55039,-0.20536 -1.15149,-0.34503 -1.81079,-0.42568c-0.65182,-0.08065 -1.26789,-0.11723 -1.83906,-0.11723c-1.29782,0 -2.51416,0.21284 -3.65817,0.63852c-1.14484,0.42568 -2.20238,1.03426 -3.17346,1.82659l0,-0.39575c0,-0.572 -0.19538,-1.05671 -0.59445,-1.45994c-0.39741,-0.40323 -0.86881,-0.60859 -1.42585,-0.60859s-1.05089,0.20536 -1.4483,0.60859c-0.39907,0.40323 -0.59445,0.89542 -0.59445,1.45994l0,18.14533c0,0.572 0.19538,1.05671 0.59445,1.45994c0.39741,0.40323 0.87547,0.60859 1.4483,0.60859s1.03509,-0.20536 1.42585,-0.60859c0.39907,-0.40323 0.59445,-0.89542 0.59445,-1.45994l0,-9.07641c0,-0.96858 0.18125,-1.87814 0.53625,-2.72949c0.35501,-0.85135 0.84055,-1.58465 1.45578,-2.21568c0.6169,-0.63103 1.34105,-1.12987 2.1658,-1.48987c0.83306,-0.36665 1.71767,-0.55039 2.66713,-0.55039s1.84571,0.16877 2.66547,0.49884c0.32508,0.14716 0.60859,0.22032 0.85468,0.22032c0.28268,0 0.55039,-0.05155 0.79648,-0.16129c0.24609,-0.10974 0.46392,-0.2569 0.64517,-0.44729c0.18125,-0.19039 0.32508,-0.41071 0.43399,-0.66762c0.10891,-0.24942 0.16711,-0.52129 0.16711,-0.81477c0,-0.572 -0.18125,-1.03426 -0.5429,-1.39426l0.00665,0l-0.00083,0z" class="cls-1"/>
                <path stroke="null" id="svg_7" stroke-width="0px" fill="#1d63ed" d="m113.23074,30.59166c-0.52877,-1.31361 -1.3186,-2.51665 -2.3828,-3.60246c-2.15083,-2.17162 -4.72236,-3.26491 -7.70709,-3.26491s-5.57704,1.08581 -7.70709,3.26491c-2.13005,2.17162 -3.18676,4.79885 -3.18676,7.88002s1.06502,5.70092 3.18676,7.88002c2.13005,2.17162 4.69409,3.26491 7.70709,3.26491s5.54877,-1.08581 7.70709,-3.26491c2.13005,-2.15 3.18759,-4.7764 3.18759,-7.88002c-0.01497,-1.54059 -0.28268,-2.96395 -0.80396,-4.27756l-0.00083,0zm-3.79535,6.9555l0,0.01497c-0.35501,0.84387 -0.84055,1.58465 -1.45578,2.21568c-0.61524,0.63852 -1.34022,1.13736 -2.1658,1.51149c-0.82558,0.37413 -1.71684,0.55787 -2.66547,0.55787s-1.85402,-0.18374 -2.68709,-0.55787c-0.83306,-0.37413 -1.55056,-0.87297 -2.15832,-1.504c-0.60859,-0.63103 -1.09329,-1.37181 -1.4483,-2.21568c-0.35501,-0.85135 -0.53625,-1.75343 -0.53625,-2.70787s0.18125,-1.85652 0.53625,-2.70787c0.35501,-0.85135 0.84055,-1.58465 1.4483,-2.21568c0.60859,-0.63103 1.33274,-1.12987 2.15832,-1.504c0.83306,-0.37413 1.72433,-0.55787 2.68709,-0.55787s1.83241,0.18374 2.66547,0.55787c0.83306,0.37413 1.55056,0.87297 2.1658,1.51149c0.61524,0.63852 1.10078,1.37929 1.45578,2.21568c0.35501,0.84387 0.53625,1.73929 0.53625,2.69291s-0.18125,1.85652 -0.53625,2.69291z" class="cls-1"/>
                <path stroke="null" id="svg_8" stroke-width="0px" fill="#1d63ed" d="m156.80696,25.79282c0,-0.27852 -0.0582,-0.5429 -0.16628,-0.79233c-0.10891,-0.24942 -0.25358,-0.47639 -0.43482,-0.66762c-0.18125,-0.19039 -0.39824,-0.34503 -0.64434,-0.44729c-0.24609,-0.10226 -0.51381,-0.16129 -0.79648,-0.16129c-0.40572,0 -0.76821,0.10309 -1.08664,0.31593l-11.63297,7.74118l0,-15.52642c0,-0.58697 -0.19538,-1.07833 -0.59362,-1.48239c-0.39824,-0.40323 -0.86881,-0.60859 -1.42668,-0.60859s-1.05006,0.20536 -1.44913,0.60859c-0.39824,0.40323 -0.59362,0.89542 -0.59362,1.48239l0,27.66155c0,0.572 0.19538,1.06419 0.59362,1.47491c0.39824,0.41071 0.8763,0.61607 1.44913,0.61607s1.03593,-0.20536 1.42668,-0.61607c0.39824,-0.41071 0.59362,-0.9029 0.59362,-1.47491l0,-7.18331l2.37614,-1.59213l8.98911,10.32351c0.36249,0.35917 0.81893,0.53542 1.36184,0.53542c0.28268,0 0.55039,-0.05155 0.79648,-0.16129c0.24609,-0.10309 0.46392,-0.2569 0.64434,-0.44729c0.18125,-0.19039 0.32591,-0.41071 0.43482,-0.66762c0.10891,-0.24942 0.16628,-0.52129 0.16628,-0.79233c0,-0.5429 -0.1879,-1.02761 -0.56535,-1.45246l-8.36639,-9.63345l8.14856,-5.41492c0.52129,-0.35917 0.77487,-0.90955 0.77487,-1.65116l0,0.01497l0.00083,-0.00166z" class="cls-1"/>
                <path stroke="null" id="svg_9" stroke-width="0px" fill="#1d63ed" d="m122.36534,29.92405c0.62272,-0.63103 1.3477,-1.12987 2.18077,-1.48987c0.83306,-0.36665 1.71684,-0.55039 2.66547,-0.55039c0.85468,0 1.64451,0.14716 2.37614,0.43981c0.72415,0.29348 1.42003,0.72664 2.0785,1.29117c0.39076,0.3151 0.83306,0.47639 1.32525,0.47639c0.58697,0 1.06502,-0.19787 1.44913,-0.59445c0.38411,-0.39658 0.572,-0.89542 0.572,-1.48987s-0.23196,-1.14484 -0.70253,-1.56969c-1.99952,-1.80497 -4.36735,-2.70787 -7.0985,-2.70787c-3.00635,0 -5.57704,1.08581 -7.70709,3.26491c-2.13005,2.17162 -3.18676,4.79885 -3.18676,7.88002s1.06502,5.70092 3.18676,7.88002c2.13005,2.17162 4.69409,3.26491 7.70709,3.26491c2.72367,0 5.09233,-0.90207 7.0985,-2.70787c0.42734,-0.43981 0.64517,-0.94613 0.64517,-1.5331s-0.18873,-1.09329 -0.572,-1.48239c-0.38411,-0.3891 -0.86881,-0.58697 -1.4483,-0.58697c-0.49219,0.01497 -0.92036,0.16129 -1.28202,0.43981c-0.65182,0.572 -1.33274,0.99768 -2.06437,1.28368c-0.72415,0.286 -1.51398,0.42568 -2.37614,0.42568c-0.94863,0 -1.83241,-0.18374 -2.66547,-0.55039c-0.83306,-0.36665 -1.55721,-0.86549 -2.18077,-1.48904c-0.62272,-0.62355 -1.11574,-1.37181 -1.47075,-2.21568c-0.35501,-0.85135 -0.53625,-1.76091 -0.53625,-2.72949s0.18125,-1.87814 0.53625,-2.72949c0.35501,-0.85135 0.8472,-1.58465 1.47075,-2.21568l0,-0.00748l-0.00083,0.00333z" class="cls-1"/>
            </g>
        </g>
    </g>
</svg>