<svg width="130" height="60" xmlns="http://www.w3.org/2000/svg" preserveAspectRatio="xMidYMid" version="1.1"><g><g stroke="null" id="svg_1" fill="#1A1919"><path stroke="null" id="svg_2" d="m13.49831,5.87835c-0.6457,-0.6482 -1.54153,-1.04754 -2.54016,-1.04754c-0.99613,0 -1.88506,0.39933 -2.52261,1.04754l-0.0163,0c-0.64382,0.64382 -1.04315,1.54215 -1.04315,2.53452c0,0.99801 0.39933,1.8907 1.04315,2.52825l0.0163,0.01755c0.63755,0.64256 1.52648,1.03625 2.52261,1.03625c0.99864,0 1.89447,-0.39369 2.54016,-1.03625l0.00752,-0.01755c0.64632,-0.63755 1.04064,-1.53024 1.04064,-2.52825c0,-0.99237 -0.39432,-1.89071 -1.04064,-2.53452l-0.00752,0zm-2.54016,49.03546c0.99864,0 1.89447,-0.40685 2.54016,-1.04315l0.00752,-0.01881c0.64632,-0.63504 1.04064,-1.53338 1.04064,-2.52073c0,-0.99801 -0.39432,-1.89196 -1.04064,-2.53891l-0.00752,0c-0.6457,-0.65448 -1.54153,-1.05004 -2.54016,-1.05004c-0.99613,0 -1.88506,0.39557 -2.52261,1.05004l-0.0163,0c-0.64382,0.64695 -1.04315,1.5409 -1.04315,2.53891c0,0.98735 0.39933,1.88569 1.04315,2.52073l0.0163,0.01881c0.63755,0.6363 1.52648,1.04315 2.52261,1.04315zm19.51701,-10.85337c0.88705,-0.2332 1.6901,-0.80242 2.18096,-1.66377l0.06582,-0.12601c0.43632,-0.81559 0.51593,-1.75843 0.28273,-2.59533c-0.23508,-0.89332 -0.81057,-1.68571 -1.67004,-2.17908l-0.05078,-0.03385c-0.83753,-0.46014 -1.7904,-0.56044 -2.6668,-0.3216c-0.89081,0.22255 -1.69135,0.81559 -2.17908,1.66941c-0.49399,0.84881 -0.5968,1.82426 -0.36046,2.72196c0.24386,0.88329 0.81496,1.68132 1.66941,2.18033l0.00502,0c0.85633,0.49211 1.82425,0.5805 2.72322,0.34792zm-15.8428,-17.85889c-0.94034,-0.93783 -2.238,-1.52585 -3.67421,-1.52585c-1.43433,0 -2.72823,0.58802 -3.66669,1.52585c-0.93532,0.93658 -1.51206,2.2286 -1.51206,3.66481c0,1.43621 0.57674,2.73387 1.51206,3.68111c0.93846,0.93219 2.23236,1.51457 3.66669,1.51457c1.43621,0 2.73387,-0.58238 3.67421,-1.51457c0.93783,-0.94723 1.51457,-2.2449 1.51457,-3.68111c0,-1.43621 -0.57674,-2.72823 -1.51457,-3.66481zm-2.06624,-6.1053c2.08504,0.34354 3.95694,1.34218 5.38813,2.7834l0.01066,0c0.22756,0.22693 0.44885,0.47706 0.6551,0.72657l3.57642,-2.06874c-0.48083,-1.45313 -0.50339,-2.97209 -0.1166,-4.39702c0.50966,-1.90763 1.74652,-3.61528 3.60087,-4.68539l0.06018,-0.03824c1.83429,-1.03751 3.9187,-1.25378 5.8,-0.74412c1.90575,0.51092 3.62469,1.75341 4.69479,3.60463l0,0.00564c1.06509,1.84118 1.28074,3.9538 0.77296,5.85579c-0.50716,1.90701 -1.7484,3.62657 -3.60087,4.6904l-0.48835,0.28837l-0.04952,0c-1.71329,0.81559 -3.5971,0.94347 -5.32733,0.48772c-1.42053,-0.37613 -2.72322,-1.16978 -3.74379,-2.29505l-3.5714,2.0631c0.41061,1.08578 0.63755,2.25618 0.63755,3.49304c0,1.23059 -0.22693,2.41792 -0.63755,3.50934l3.5714,2.05746c1.02058,-1.14282 2.32326,-1.91829 3.74379,-2.29568c1.90638,-0.52095 4.019,-0.29965 5.8652,0.77672l0.11848,0.05516l0,0.00564c1.7835,1.08139 2.98087,2.75017 3.48238,4.63523c0.50778,1.89071 0.29213,4.00458 -0.77296,5.84953l-0.06457,0.12851l-0.00752,-0.01066c-1.06948,1.77849 -2.75581,2.98338 -4.61706,3.49304c-1.90889,0.50339 -4.02214,0.28837 -5.86582,-0.77233l0,-0.01442c-1.85435,-1.07199 -3.0912,-2.7834 -3.60087,-4.68727c-0.38679,-1.41866 -0.36422,-2.93761 0.1166,-4.39012l-3.57642,-2.06373c-0.20625,0.2495 -0.42754,0.48835 -0.6551,0.71529l-0.01066,0.01128c-1.43119,1.43621 -3.30309,2.43422 -5.38813,2.76647l0,4.13247c1.48573,0.31031 2.816,1.05318 3.85789,2.0957l0.00564,0.01066c1.39671,1.39044 2.26183,3.32754 2.26183,5.45646c0,2.12265 -0.86511,4.04847 -2.26183,5.44581l-0.00564,0.02194c-1.40675,1.39671 -3.33632,2.26183 -5.46587,2.26183c-2.11827,0 -4.05285,-0.86511 -5.45646,-2.26183l-0.00564,0l0,-0.02194c-1.39797,-1.39734 -2.26496,-3.32315 -2.26496,-5.44581c0,-2.12892 0.86699,-4.06602 2.26496,-5.45646l0,-0.01066l0.00564,0c1.04127,-1.04252 2.37404,-1.78539 3.85413,-2.0957l0,-4.13247c-2.08442,-0.33225 -3.95318,-1.33026 -5.38186,-2.76647l-0.01504,-0.01128c-1.78413,-1.7904 -2.90126,-4.25785 -2.90126,-6.99172c0,-2.72823 1.11712,-5.19568 2.90126,-6.9867l0.01504,0c1.42869,-1.44122 3.29745,-2.43986 5.38186,-2.7834l0,-4.11492c-1.48009,-0.32097 -2.81286,-1.06383 -3.85413,-2.10071l-0.00564,0l0,-0.01128c-1.39797,-1.40298 -2.26496,-3.32691 -2.26496,-5.45646c0,-2.11827 0.86699,-4.05912 2.26496,-5.45646l0.00564,-0.00564c1.40361,-1.40236 3.3382,-2.26684 5.45646,-2.26684c2.12955,0 4.05912,0.86449 5.46587,2.26684l0,0.00564l0.00564,0c1.39671,1.39734 2.26183,3.3382 2.26183,5.45646c0,2.12955 -0.86511,4.05348 -2.26183,5.45646l-0.00564,0.01128c-1.0419,1.03688 -2.37216,1.77974 -3.85789,2.10071l0,4.11492zm20.08999,-2.74453l-0.03072,-0.04514c-0.49274,-0.83126 -1.28011,-1.38543 -2.15024,-1.62428c-0.89896,-0.23885 -1.86688,-0.13854 -2.72823,0.35545l0.00502,0c-0.85947,0.48772 -1.43433,1.28513 -1.67443,2.17908c-0.23634,0.88705 -0.13353,1.86751 0.36046,2.72196l0.01693,0.02194c0.49462,0.84317 1.28262,1.40863 2.16215,1.63619c0.88392,0.25013 1.86876,0.14418 2.71758,-0.3498l0.04576,-0.02194c0.83565,-0.49901 1.39233,-1.28638 1.62428,-2.15149c0.23696,-0.89269 0.1423,-1.86813 -0.34855,-2.72196z"/><path stroke="null" id="svg_3" d="m48.52524,18.56036l3.99079,0l0,12.18176l5.75486,-6.36546l4.78506,0l-6.94784,7.37475l6.97668,9.34821l-4.56941,0l-5.99935,-8.35019l0,8.35019l-3.99079,0l0,-22.53926zm19.16658,14.24987c0,2.07438 1.492,5.09036 5.0866,5.09036c2.22421,0 3.688,-1.15912 4.44717,-2.67808c0.39745,-0.73722 0.5805,-1.52523 0.64194,-2.3452c0.02758,-0.79364 -0.12225,-1.61863 -0.45951,-2.35147c-0.69961,-1.57977 -2.25242,-2.94953 -4.65906,-2.94953c-3.22724,0 -5.05713,2.61664 -5.05713,5.20634l0,0.02758zm14.13452,8.28939l-3.99267,0l0,-2.40601c-1.06258,1.94587 -3.28742,2.92257 -5.63387,2.92257c-5.3618,0 -8.49814,-4.17572 -8.49814,-8.89434c0,-5.26777 3.80711,-8.86111 8.49814,-8.86111c3.04607,0 4.90354,1.61425 5.63387,2.95579l0,-2.43986l3.99267,0l0,16.72296zm4.51863,-13.64555l-2.06811,0l0,-3.07741l2.06811,0l0,-0.94222c0,-4.96874 3.77828,-5.2684 6.64317,-5.30162l0,3.07177c-1.00741,0 -2.6505,0 -2.6505,2.35085l0,0.82123l2.6505,0l0,3.07741l-2.6505,0l0,13.64555l-3.99267,0l0,-13.64555zm9.35698,-8.89371l3.98954,0l0,12.18176l5.75612,-6.36546l4.78506,0l-6.94784,7.37475l6.97542,9.34821l-4.56941,0l-5.99935,-8.35019l0,8.35019l-3.98954,0l0,-22.53926zm19.16658,14.24987c0,2.07438 1.49138,5.09036 5.0866,5.09036c2.22108,0 3.68487,-1.15912 4.44529,-2.67808c0.3987,-0.73722 0.58238,-1.52523 0.64256,-2.3452c0.02758,-0.79364 -0.12225,-1.61863 -0.46014,-2.35147c-0.69836,-1.57977 -2.25117,-2.94953 -4.65718,-2.94953c-3.22787,0 -5.05714,2.61664 -5.05714,5.20634l0,0.02758zm14.13327,8.28939l-3.99142,0l0,-2.40601c-1.06572,1.94587 -3.28867,2.92257 -5.63388,2.92257c-5.3618,0 -8.49563,-4.17572 -8.49563,-8.89434c0,-5.26777 3.80586,-8.86111 8.49563,-8.86111c3.04419,0 4.90355,1.61425 5.63388,2.95579l0,-2.43986l3.99142,0l0,16.72296z"/></g></g></svg>